<svg xmlns="http://www.w3.org/2000/svg" width="84" height="37" viewBox="0 0 84 37" fill="none">
    <g clip-path="url(#clip0_11298_2372)">
        <path fill-rule="evenodd" clip-rule="evenodd" d="M9.68439 9.87721L9.66997 9.6285C10.7941 9.56539 11.9429 8.57429 11.9098 7.97257C11.8612 7.08683 10.7194 6.90551 10.078 5.86093C8.70921 3.62841 10.5357 0.5 13.2796 0.5C16.6874 0.5 17.8847 4.60079 16.3226 7.04779C15.0468 9.04924 12.1421 9.74136 9.68439 9.87721Z" fill="#00AA4F"/>
        <path fill-rule="evenodd" clip-rule="evenodd" d="M38.4858 14.4062L36.3021 21.9628L34.0506 14.4062H28.2284L25.9758 21.9681L23.7707 14.4062H16.5557L18.067 18.7135L22.004 31.9444L28.9792 31.9465L31.171 22.6597L33.1341 31.9465L40.2546 31.9444L45.4728 14.4062C45.4728 14.4062 40.6333 14.4062 38.4858 14.4062Z" fill="#4D5547"/>
        <path fill-rule="evenodd" clip-rule="evenodd" d="M76.8117 14.4062L73.6485 24.8398L70.512 14.4062H63.5518L68.786 31.9439L71.4968 31.9433L70.119 36.4998H77.0803L82.4785 18.6787L84 14.4062H76.8117Z" fill="#4D5547"/>
        <path fill-rule="evenodd" clip-rule="evenodd" d="M62.8387 26.1955C62.513 25.9725 62.5306 25.3333 62.5306 25.0076V19.8483C62.5306 17.266 61.6377 15.402 59.126 14.5131C57.2959 13.8648 54.5797 13.8391 52.6454 13.8873C49.6274 13.8873 46.0045 14.4895 46.0045 14.4895L47.6675 20.0671C47.6675 20.0671 50.193 19.5857 51.8058 19.5857C52.5167 19.5857 55.0528 19.5664 55.4139 20.3516C55.4411 20.411 55.4534 20.4757 55.4534 20.5436V20.8469H53.5954C49.6146 20.8469 45.394 21.9236 45.394 26.6662C45.394 29.5892 46.892 32.1662 52.413 32.1662C54.6603 32.1662 56.7143 30.8552 56.7143 30.8552C57.7808 31.8196 59.9074 32.1036 61.2046 32.1036C62.5301 32.1036 64.6962 31.7453 65.6003 31.3671L64.0323 26.1126C64.0329 26.1132 63.2115 26.4512 62.8387 26.1955ZM55.7695 26.6304C54.9637 26.8422 54.067 27.0411 53.2595 27.0411C52.8285 27.0411 52.1209 26.9138 52.1209 26.3613C52.1209 25.4472 53.338 25.3611 54.0088 25.3456L55.7695 25.3018V26.6304Z" fill="#4D5547"/>
        <path fill-rule="evenodd" clip-rule="evenodd" d="M4.29491 12.8449C6.37182 12.8449 8.05621 11.1585 8.05621 9.07837C8.05621 6.99883 6.37129 5.31348 4.29491 5.31348C2.22066 5.31348 0.534668 6.99883 0.534668 9.07837C0.534668 11.1585 2.22013 12.8449 4.29491 12.8449Z" fill="#4D5547"/>
        <path fill-rule="evenodd" clip-rule="evenodd" d="M0.961288 31.9439H7.48523L8.42889 14.4062H0L0.961288 31.9439Z" fill="#4D5547"/>
    </g>
    <defs>
        <clipPath id="clip0_11298_2372">
            <rect width="84" height="36.0001" fill="white" transform="translate(0 0.5)"/>
        </clipPath>
    </defs>
</svg>